<svg xmlns="http://www.w3.org/2000/svg" viewBox="0 0 100 100" width="100" height="100">
  <defs>
    <linearGradient id="shieldGrad" x1="0%" y1="0%" x2="0%" y2="100%">
      <stop offset="0%" style="stop-color:#14B8A6"/>
      <stop offset="100%" style="stop-color:#10B981"/>
    </linearGradient>
    <filter id="shadow" x="-10%" y="-10%" width="130%" height="130%">
      <feDropShadow dx="1" dy="2" stdDeviation="2" flood-opacity="0.2"/>
    </filter>
  </defs>
  
  <!-- Shield -->
  <path d="M 20 15 L 80 15 L 80 42 Q 80 55 68 68 L 50 82 L 32 68 Q 20 55 20 42 Z" 
        fill="url(#shieldGrad)" filter="url(#shadow)"/>
  
  <!-- Document -->
  <rect x="34" y="28" width="32" height="38" rx="4" fill="white" opacity="0.9"/>
  
  <!-- Lines -->
  <rect x="38" y="34" width="20" height="3" rx="1.5" fill="#14B8A6" opacity="0.8"/>
  <rect x="38" y="41" width="15" height="3" rx="1.5" fill="#3B82F6" opacity="0.8"/>
  <rect x="38" y="48" width="20" height="3" rx="1.5" fill="#14B8A6" opacity="0.8"/>
  <rect x="38" y="55" width="12" height="3" rx="1.5" fill="#3B82F6" opacity="0.8"/>
  
  <!-- Checkmark badge -->
  <circle cx="74" cy="72" r="10" fill="#3B82F6"/>
  <path d="M 68.5 72 L 71.5 75 L 79.5 68" fill="none" stroke="white" stroke-width="2.5" 
        stroke-linecap="round" stroke-linejoin="round"/>
</svg>